<svg xmlns="http://www.w3.org/2000/svg" width="192" height="31.998" viewBox="0 0 192 31.998">
  <path id="logo" d="M2.694,26.324a2.694,2.694,0,0,0,2.695-2.7V2.7A2.694,2.694,0,0,0,0,2.7v20.93a2.694,2.694,0,0,0,2.694,2.7Zm15.506.213a9.978,9.978,0,0,0,10.317-9.9v-.071A9.879,9.879,0,0,0,18.271,6.741a9.977,9.977,0,0,0-10.317,9.9v.07A9.881,9.881,0,0,0,18.2,26.537Zm.071-4.648a5.051,5.051,0,0,1-5-5.25v-.071a4.871,4.871,0,0,1,4.928-5.18,5.052,5.052,0,0,1,5,5.25v.072a4.871,4.871,0,0,1-4.929,5.18Zm21.887,4.648a9.977,9.977,0,0,0,10.317-9.9v-.071A9.879,9.879,0,0,0,40.229,6.741a9.977,9.977,0,0,0-10.317,9.9v.07A9.881,9.881,0,0,0,40.158,26.537Zm.071-4.648a5.051,5.051,0,0,1-5-5.25v-.071a4.871,4.871,0,0,1,4.928-5.18,5.051,5.051,0,0,1,5,5.25v.072a4.871,4.871,0,0,1-4.929,5.18ZM55.487,32a2.694,2.694,0,0,0,2.694-2.7V23.627A7.3,7.3,0,0,0,64.1,26.466c4.5,0,8.65-3.477,8.65-9.827v-.071c0-6.35-4.218-9.827-8.65-9.827a6.975,6.975,0,0,0-5.92,3.086V9.58a2.695,2.695,0,0,0-5.39,0V29.305a2.694,2.694,0,0,0,2.7,2.7Zm7.232-10.11c-2.517,0-4.608-2.094-4.608-5.251v-.071c0-3.158,2.091-5.25,4.608-5.25s4.645,2.092,4.645,5.25v.07c0,3.193-2.127,5.251-4.645,5.251Zm19.087,4.576c4.113,0,7.268-1.916,7.268-6.138v-.07c0-3.478-3.084-4.755-5.743-5.642-2.057-.71-3.865-1.206-3.865-2.27v-.071c0-.745.674-1.313,1.985-1.313a10.128,10.128,0,0,1,4.113,1.207,1.971,1.971,0,0,0,.993.248,2.12,2.12,0,0,0,2.162-2.129,2.2,2.2,0,0,0-1.276-2.022,13.356,13.356,0,0,0-5.885-1.454c-3.83,0-6.949,2.164-6.949,6.03v.072c0,3.69,3.014,4.93,5.673,5.711,2.091.639,3.935,1.03,3.935,2.2v.07c0,.852-.71,1.42-2.27,1.42a10,10,0,0,1-5.14-1.7,2.066,2.066,0,0,0-1.064-.284,2.09,2.09,0,0,0-2.127,2.129A2.151,2.151,0,0,0,74.644,24.3a13.239,13.239,0,0,0,7.162,2.164Zm15.612-.036A7.955,7.955,0,0,0,100.5,25.9a2.194,2.194,0,0,0,1.382-2.022,2.248,2.248,0,0,0-2.233-2.235c-.107,0-.461.035-.638.035-1.206,0-1.738-.6-1.738-1.845V11.707h2.376a2.306,2.306,0,1,0,0-4.612H97.276V4.718a2.694,2.694,0,0,0-5.389,0V7.1H91.71a2.306,2.306,0,1,0,0,4.612h.177v9.011c0,4.4,2.234,5.712,5.531,5.712Zm13.024.036a6.723,6.723,0,0,0,5.566-3.051v.212a2.695,2.695,0,1,0,5.39,0V9.58a2.695,2.695,0,0,0-5.39,0V17.7c0,2.554-1.311,3.867-3.368,3.867s-3.261-1.313-3.261-3.867V9.579a2.695,2.695,0,1,0-5.39,0v9.827C103.989,23.769,106.365,26.466,110.442,26.466Zm21.994,0a6.976,6.976,0,0,0,5.92-3.087v.248a2.695,2.695,0,1,0,5.39,0V2.7a2.695,2.695,0,1,0-5.39,0V9.579a7.292,7.292,0,0,0-5.92-2.838c-4.5,0-8.65,3.476-8.65,9.827v.07C123.786,22.988,128,26.466,132.436,26.466Zm1.383-4.577c-2.518,0-4.645-2.093-4.645-5.25v-.071c0-3.193,2.127-5.25,4.645-5.25s4.608,2.092,4.608,5.25v.07C138.427,19.8,136.336,21.889,133.819,21.889Zm16.108-16.71c1.7,0,3.014-.993,3.014-2.554v-.07c0-1.562-1.312-2.52-3.014-2.52s-3.013.958-3.013,2.52v.07c0,1.561,1.311,2.555,3.013,2.555Zm0,21.145a2.694,2.694,0,0,0,2.694-2.7V9.58a2.694,2.694,0,1,0-5.388,0V23.628a2.694,2.694,0,0,0,2.694,2.7Zm15.506.213a9.978,9.978,0,0,0,10.317-9.9v-.071a10.29,10.29,0,0,0-20.563.071v.07a9.88,9.88,0,0,0,10.246,9.828Zm.07-4.648a5.051,5.051,0,0,1-5-5.25v-.071a4.87,4.87,0,0,1,4.928-5.18,5.051,5.051,0,0,1,5,5.25v.072a4.871,4.871,0,0,1-4.928,5.18Zm19.23,4.577c4.112,0,7.267-1.916,7.267-6.138v-.07c0-3.478-3.084-4.755-5.743-5.642-2.057-.71-3.865-1.206-3.865-2.27v-.071c0-.745.674-1.313,1.986-1.313a10.129,10.129,0,0,1,4.112,1.207,1.971,1.971,0,0,0,.993.248,2.12,2.12,0,0,0,2.162-2.129,2.2,2.2,0,0,0-1.276-2.022,13.356,13.356,0,0,0-5.885-1.454c-3.83,0-6.949,2.164-6.949,6.03v.072c0,3.69,3.014,4.93,5.673,5.711,2.091.639,3.935,1.03,3.935,2.2v.07c0,.852-.71,1.42-2.27,1.42a10,10,0,0,1-5.14-1.7,2.066,2.066,0,0,0-1.063-.284,2.091,2.091,0,0,0-2.128,2.129A2.151,2.151,0,0,0,177.57,24.3a13.239,13.239,0,0,0,7.162,2.164Z" transform="translate(0 -0.002)" fill="#5f5f5f"/>
</svg>
